<?xml version="1.0" encoding="utf-8"?>
<!-- Generator: Adobe Illustrator 22.0.1, SVG Export Plug-In . SVG Version: 6.00 Build 0)  -->
<svg version="1.1" id="圖層_1" xmlns="http://www.w3.org/2000/svg" xmlns:xlink="http://www.w3.org/1999/xlink" x="0px" y="0px"
	 width="270.4px" height="165.3px" viewBox="0 0 270.4 165.3" style="enable-background:new 0 0 270.4 165.3;" xml:space="preserve"
	>
<style type="text/css">
	.st0{fill:#796A56;}
	.st1{fill:#A08777;}
	.st2{fill:#BADCC8;}
	.st3{fill:#F4C3BA;}
	.st4{fill:#FFFFFF;}
	.st5{fill:#E6C4BE;}
	.st6{fill:#B9D4C6;}
</style>
<g>
	<g>
		<path class="st0" d="M16.5,146.6c2.9,2.2,6.1,5.3,7.6,7.4l-1.9,1.8c-1.2-1.8-3.6-4.4-6.1-6.5v13.3h-2.6v-12.7
			c-2.5,3.8-5.9,7.5-9.1,9.7c-0.3-0.7-1.1-1.7-1.7-2.3c3.6-2.2,7.6-6.5,10-10.7H3.9v-2.5h9.6v-4.4h2.6v4.4h8.6v2.5H16.5z
			 M24.6,128.4c-5.1,1.5-13.4,2.5-20.1,2.9c-0.1-0.6-0.4-1.6-0.8-2.2c6.6-0.6,14.7-1.5,19.1-3L24.6,128.4z M8.5,140.6
			c-0.5-1.8-2-4.6-3.5-6.5l2-0.9c1.6,2,3.1,4.6,3.7,6.4L8.5,140.6z M14.8,139.2c-0.4-1.8-1.5-4.5-2.7-6.5l2.2-0.6
			c1.2,2,2.4,4.6,2.8,6.3L14.8,139.2z M18.1,139.8c1.3-2.1,2.9-5.6,3.7-7.9l2.6,0.8c-1.3,2.7-3,5.9-4.3,7.9L18.1,139.8z M40.7,150
			c-3.3,5.4-9,10-15.2,12.7c-0.4-0.7-1.2-1.7-1.9-2.2c5.9-2.4,11.5-6.7,14.5-11.5L40.7,150z M38.5,127.5c-2.8,3.5-7.1,7-10.9,9.2
			c-0.5-0.7-1.3-1.5-2-2c3.6-1.9,7.9-5.2,10.3-8.3L38.5,127.5z M39.7,138.5c-3,3.7-7.7,7.4-11.9,9.7c-0.4-0.6-1.3-1.5-2-2
			c3.9-2,8.7-5.4,11.2-8.7L39.7,138.5z"/>
		<path class="st0" d="M86,155c-1.5-1.1-4.1-2.5-6.6-3.6c0.8,5,2.6,8.5,6.3,8.8c0.6,0,0.9-1.5,1.1-4.3c0.5,0.6,1.2,1.2,1.7,1.5
			c-0.4,4.1-1.4,5.6-3.4,5.2c-6.9-0.7-8.4-8.2-8.8-17.3h-6.6v16.9H67v-16.9H60c-0.2,5.9-1.5,12.2-7,17.2c-0.4-0.6-1.3-1.4-2-1.8
			c5.1-4.6,6.3-10.2,6.5-15.4h-5.9v-2.5h5.9v-6c-1.5,0.4-3,0.7-4.3,1c-0.1-0.5-0.6-1.4-0.9-2c4.3-1,8.9-2.6,11.7-4.1l2.2,2
			c-1.7,0.9-3.8,1.6-6,2.3v6.7h7v-11.4h2.6v11.4h9c0,2.2,0.2,4.2,0.4,6.1l0.9,0.4c1.5-1.3,3.4-3.1,4.4-4.4l2.3,1.3
			c-1.4,1.3-3.2,2.8-4.7,3.9c2.1,0.9,4.1,2,5.5,2.9L86,155z M85.7,137.6c-1.5-0.9-4-2.3-6.5-3.3c1,4,2.8,6.9,6.2,7.2
			c0.5,0.1,0.9-1.1,1-3.2c0.5,0.5,1.2,1.1,1.7,1.4c-0.5,3.3-1.4,4.6-3.3,4.2c-6.2-0.7-8.1-6.7-8.9-13.7H53.9v-2.4h24.4
			c0.1,1.4,0.2,2.8,0.4,4.1l1,0.4c1.5-1.3,3.3-3.2,4.3-4.4l2.2,1.2c-1.4,1.4-3,2.8-4.6,4c2.1,0.8,4.1,1.8,5.5,2.6L85.7,137.6z"/>
		<path class="st0" d="M105.9,138.9c0,6.9-0.6,16.9-4.7,23.7c-0.5-0.4-1.7-1.1-2.4-1.3c4-6.6,4.3-15.8,4.3-22.3v-11.2h29.8v8.9
			h-27.1V138.9z M135.7,159.2v2.3H105v-2.3h13.8v-4.6h-10.7v-2.3h10.7v-3.7c-8,0.5-9.3,0.7-10.1,0.9c-0.1-0.5-0.5-1.8-0.8-2.5
			c0.7-0.1,1.4-0.5,2.2-1.2c0.7-0.5,2.5-2,4.2-3.9h-8v-2.2h28v2.2h-16.5c-1.7,1.7-3.4,3.3-5.2,4.7l14.2-0.8
			c-1.1-0.9-2.2-1.7-3.2-2.5l2-1.3c2.9,2,6.5,5,8.4,7l-2.2,1.4c-0.6-0.8-1.5-1.7-2.6-2.6l-7.8,0.5v3.9h11.1v2.3h-11.1v4.6H135.7z
			 M105.9,130v4.3h24.4V130H105.9z"/>
	</g>
	<g>
		<g>
			<path class="st1" d="M199.7,132.6c-0.9,0-1.6-0.7-1.6-1.6V58.6c0-0.9,0.7-1.6,1.6-1.6s1.6,0.7,1.6,1.6V131
				C201.3,131.9,200.6,132.6,199.7,132.6z"/>
		</g>
		<g>
			<g>
				<path class="st2" d="M212.3,2.2c-3.4,0-6.6,0.7-9.4,2.1c3.5,2.3,6.3,5.4,8.3,9c8.2,4.3,13.7,12.8,13.7,22.5
					c0,2.6-0.4,5.1-1.1,7.4c6.6-3.8,11-10.9,11-18.9C234.8,12.1,224.7,2.2,212.3,2.2z"/>
				<path class="st3" d="M189.6,12.1c0.8-0.3,1.7-0.6,2.5-0.8c0.8-0.2,1.7-0.4,2.5-0.6c1.4-0.2,2.9-0.4,4.4-0.4
					c2.3,0,4.5,0.3,6.5,0.9c-1.7-2-3.8-3.7-6.1-5c-0.6-0.3-1.1-0.6-1.7-0.9c-0.6-0.3-1.2-0.5-1.9-0.7c-2.3-0.8-4.8-1.3-7.5-1.3
					c-12.4,0-22.5,9.9-22.5,22c0,6.8,3.2,12.9,8.1,16.9c-0.6-2.1-0.9-4.3-0.9-6.5C173.1,25,180,15.8,189.6,12.1z"/>
				<path class="st1" d="M213.4,18.9c-0.7-0.6-1.5-1.1-2.3-1.6c-0.8-0.5-1.6-0.9-2.4-1.3c-2.9-1.4-6.2-2.2-9.6-2.2
					c-2.5,0-4.8,0.4-7,1.1c-0.8,0.2-1.5,0.5-2.2,0.9c-0.8,0.3-1.5,0.7-2.2,1.2c-6.6,3.8-11,10.9-11,18.9c0,3.4,0.8,6.6,2.2,9.5
					c0.4,0.8,0.9,1.6,1.4,2.4c0.5,0.8,1.1,1.6,1.7,2.3c3.6,4.2,8.8,7,14.6,7.7c0.5,0.1,0.8,0.5,0.6,1l-1.1,3h7.2l-1.3-3.1
					c-0.2-0.5,0.1-1,0.6-1c5.8-0.9,10.9-3.9,14.3-8.2c0.5-0.7,1-1.3,1.4-2c0.4-0.7,0.8-1.4,1.2-2.1c1.4-2.9,2.2-6,2.2-9.4
					C221.5,29,218.3,22.9,213.4,18.9z"/>
			</g>
			<g>
				<path class="st4" d="M214.2,37.4c-0.9,0-1.6-0.7-1.6-1.6c0-0.8-0.1-1.6-0.2-2.3c-0.1-0.9,0.5-1.7,1.3-1.8
					c0.9-0.1,1.7,0.5,1.8,1.3c0.1,0.9,0.2,1.9,0.2,2.8C215.9,36.7,215.1,37.4,214.2,37.4z"/>
			</g>
			<g>
				<path class="st4" d="M212.6,30.3c-0.6,0-1.2-0.3-1.4-0.9c-1.4-2.9-3.7-5.1-6.5-6.4c-0.8-0.4-1.2-1.3-0.8-2.1
					c0.4-0.8,1.3-1.2,2.1-0.8c3.5,1.6,6.4,4.4,8.1,7.9c0.4,0.8,0.1,1.8-0.7,2.2C213.1,30.3,212.9,30.3,212.6,30.3z"/>
			</g>
		</g>
	</g>
	<g>
		<path class="st1" d="M163.6,127.5c-1.8,1.1-4,1.7-6.4,1.7c-3.4,0-6.1-1.1-8.1-3.3c-2.1-2.2-3.1-5-3.1-8.6c0-3.9,1.1-7.1,3.3-9.4
			c2.2-2.4,5.2-3.5,8.9-3.5c2,0,3.9,0.4,5.5,1.2v3.7c-1.8-1.2-3.7-1.9-5.7-1.9c-2.4,0-4.4,0.9-6,2.6c-1.6,1.7-2.4,4.1-2.4,7
			c0,2.8,0.7,5.1,2.2,6.7c1.5,1.6,3.4,2.4,5.9,2.4c2.1,0,4.1-0.7,5.9-2.1V127.5z"/>
		<path class="st1" d="M167.8,117.1c0-3.9,1.1-7,3.2-9.3c2.1-2.3,5.1-3.4,8.8-3.4c3.5,0,6.2,1.1,8.2,3.3c2,2.2,3,5.2,3,9.1
			c0,3.7-1.1,6.8-3.2,9c-2.1,2.3-5,3.4-8.5,3.4c-3.4,0-6.2-1.1-8.3-3.3C168.8,123.7,167.8,120.7,167.8,117.1z M171.4,116.9
			c0,2.8,0.7,5,2.2,6.7s3.4,2.5,5.9,2.5c2.5,0,4.4-0.8,5.8-2.4c1.4-1.6,2-3.9,2-6.9c0-3-0.7-5.3-2-7c-1.3-1.6-3.3-2.5-5.8-2.5
			c-2.5,0-4.4,0.8-5.9,2.5C172.1,111.7,171.4,114,171.4,116.9z"/>
		<path class="st1" d="M206.8,117.1c0-3.9,1.1-7,3.2-9.3c2.1-2.3,5.1-3.4,8.8-3.4c3.5,0,6.2,1.1,8.2,3.3c2,2.2,3,5.2,3,9.1
			c0,3.7-1.1,6.8-3.2,9c-2.1,2.3-5,3.4-8.5,3.4c-3.4,0-6.2-1.1-8.3-3.3C207.9,123.7,206.8,120.7,206.8,117.1z M210.4,116.9
			c0,2.8,0.7,5,2.2,6.7s3.4,2.5,5.9,2.5c2.5,0,4.4-0.8,5.8-2.4c1.4-1.6,2-3.9,2-6.9c0-3-0.7-5.3-2-7c-1.3-1.6-3.3-2.5-5.8-2.5
			c-2.5,0-4.4,0.8-5.9,2.5C211.2,111.7,210.4,114,210.4,116.9z"/>
		<path class="st1" d="M248.2,108.6c-0.7-0.5-1.6-0.7-2.8-0.7c-1.7,0-3,0.8-4.1,2.4c-1.1,1.6-1.6,3.7-1.6,6.3v12.1h-3.6v-23.7h3.6
			v4.9h0.1c0.5-1.7,1.4-3,2.5-3.9c1.1-0.9,2.3-1.4,3.7-1.4c1,0,1.8,0.1,2.3,0.3V108.6z"/>
		<path class="st1" d="M251.2,123.8c2.1,1.5,4.3,2.3,6.8,2.3c3.4,0,5.1-1.1,5.1-3.4c0-1-0.4-1.8-1.1-2.4c-0.7-0.6-2.2-1.3-4.3-2.2
			c-2.6-1-4.3-2-5.1-3.1s-1.3-2.3-1.3-3.8c0-2,0.9-3.7,2.6-4.9c1.7-1.3,3.9-1.9,6.4-1.9c2,0,3.8,0.4,5.4,1.1v3.7
			c-1.7-1.1-3.7-1.7-6-1.7c-1.4,0-2.5,0.3-3.4,0.9c-0.9,0.6-1.3,1.5-1.3,2.5s0.3,1.8,0.9,2.4c0.6,0.5,2,1.2,4.1,2.1
			c2.7,1,4.5,2.1,5.4,3.1c0.9,1,1.4,2.3,1.4,3.9c0,2.1-0.9,3.8-2.6,5s-4,1.8-6.7,1.8c-2.4,0-4.5-0.5-6.3-1.4V123.8z"/>
	</g>
	<g>
		<path class="st0" d="M154.2,142.2c-0.3,0.6-0.5,1.3-0.8,1.9h14.3v0.9H153c-1,2-2.3,3.8-3.7,5.4l-0.7-0.6c2.1-2.3,3.7-4.9,4.8-7.7
			L154.2,142.2z M156.2,155.4V151h1v4.4h6.9v0.9h-6.9v6.7h-1v-6c-0.7,0.8-1.5,1.5-2.4,2.3c-1.6,1.1-3,2-4.4,2.6l-0.5-0.9
			c1.2-0.5,2.6-1.2,3.9-2.2c1.1-0.8,2-1.6,2.7-2.4h-6.3v-0.9H156.2z M165.4,149.8c0,4.8,0.3,8.2,0.9,10.2c0.3,1,0.7,1.5,1.2,1.5
			c0.1,0,0.2-0.1,0.3-0.4c0.3-0.5,0.5-1.6,0.8-3.4l0.9,0.4c-0.4,2.1-0.7,3.4-1.1,3.9c-0.3,0.4-0.6,0.6-1,0.6c-0.8,0-1.5-0.7-2-2
			c-0.6-1.9-1-5.2-1.1-9.9h-14.3v-0.9H165.4z M154.6,154.4l-0.7,0.7c-0.8-0.9-1.7-1.8-2.9-2.8l0.7-0.6
			C152.7,152.5,153.7,153.4,154.6,154.4z M165.5,147v0.9H153V147H165.5z M163.3,160.6l-0.6,0.8c-1.6-1.4-3.3-2.6-5-3.6l0.5-0.7
			C160.1,158.1,161.8,159.2,163.3,160.6z M162.4,152.2c-0.7,1-1.7,2-2.9,2.9l-0.7-0.5c1.2-0.8,2.2-1.8,2.9-2.8L162.4,152.2z"/>
		<path class="st0" d="M180.8,144.2v1h-3.2v4.9h2.6v1h-2.6v5.6c1.2-0.4,2.3-0.8,3.3-1.3l0.2,0.9c-2.2,1.1-4.7,2-7.5,2.9l-0.5-1
			c1.2-0.4,2.4-0.7,3.5-1.1v-6h-2.9v-1h2.9v-4.9h-3.2v-1H180.8z M185.1,154.9c-1.4,1.8-3.2,3.5-5.5,5.1l-0.6-0.7
			c2.3-1.6,4.1-3.2,5.5-4.9L185.1,154.9z M186.1,146.5v-4.5h1.1v4.5h6.4v1h-6.4v13.3c0,1.3-0.7,2-2,2c-0.7,0-1.4-0.1-2.1-0.2
			l-0.1-1.2c0.7,0.2,1.4,0.3,2.1,0.3c0.6,0,0.9-0.4,0.9-1.2v-13h-6v-1H186.1z M184.6,152.8l-0.9,0.6c-0.7-1.4-1.6-2.8-2.7-4.1
			l0.8-0.5C182.9,150,183.9,151.3,184.6,152.8z M194.1,159.6l-0.8,0.9c-1.6-2.1-3.3-3.9-5.2-5.4l0.6-0.8
			C190.7,155.8,192.5,157.6,194.1,159.6z M192.4,145l-0.7,0.7c-0.9-0.9-1.9-1.8-3.1-2.6l0.6-0.6C190.5,143.3,191.5,144.2,192.4,145z
			 M192.6,149.2c-0.7,1.6-1.7,3.1-2.9,4.4l-0.8-0.7c1.1-1.2,2-2.6,2.8-4.1L192.6,149.2z"/>
		<path class="st0" d="M212.4,156.7v-1.4h1v1.4h5.4v0.9h-5.4v2.9c0,1.4-0.7,2.1-2.1,2.1c-1.1,0-2.1-0.1-3-0.4l-0.1-1.1
			c1,0.3,2.1,0.5,3.1,0.5c0.7,0,1.1-0.4,1.1-1.2v-2.8h-14.7v-0.9H212.4z M207.7,143.6v-1.7h1v1.7h9.4v0.9h-9.4v1.5h6.9v6.5h-6.9v1.8
			c1.8,0,3.4-0.1,5-0.2c-0.4-0.2-0.8-0.4-1.2-0.6l0.5-0.7c1.6,0.7,3,1.6,4.3,2.6l-0.6,0.8c-0.6-0.5-1.2-0.9-1.8-1.3
			c-4,0.3-9,0.5-15,0.5l-0.2-0.9c2.9,0,5.5,0,8-0.1v-1.9h-6.9V146h6.9v-1.5h-9.4v-0.9H207.7z M207.7,148.8v-1.9h-5.9v1.9H207.7z
			 M207.7,151.6v-2h-5.9v2H207.7z M207.5,160.6l-0.6,0.8c-1.2-1-2.4-1.8-3.7-2.6l0.5-0.7C205.1,158.8,206.3,159.6,207.5,160.6z
			 M208.7,148.8h5.9v-1.9h-5.9V148.8z M208.7,151.6h5.9v-2h-5.9V151.6z"/>
		<path class="st0" d="M232.4,143.3v-1.4h1v1.4h9.7v0.8h-9.7v1.4h7.4v0.8H225v-0.8h7.4v-1.4h-9.7v-0.8H232.4z M231.1,160.8
			c-2,0.9-4.4,1.6-7.3,2.1l-0.3-0.9c2.7-0.3,5.1-1,7.1-1.9L231.1,160.8z M241.6,147.5v3.4h-17.5v-3.4H241.6z M229.6,150.1v-1.8H225
			v1.8H229.6z M239.8,152.2v7.4h-13.9v-7.4H239.8z M238.9,154.3V153h-12.1v1.3H238.9z M238.9,156.5v-1.4h-12.1v1.4H238.9z
			 M238.9,158.8v-1.4h-12.1v1.4H238.9z M230.5,150.1h4.5v-1.8h-4.5V150.1z M242.3,162.1l-0.4,1c-2.4-1-4.8-1.7-7.2-2.3l0.3-0.8
			C237.6,160.5,240,161.2,242.3,162.1z M236,150.1h4.7v-1.8H236V150.1z"/>
		<path class="st0" d="M259.2,144.6h8.5v1h-17.4v7c0,2-0.2,3.9-0.6,5.8c-0.3,1.5-0.9,3-1.6,4.5l-0.9-0.5c0.8-1.8,1.3-3.4,1.6-4.8
			c0.3-1.6,0.4-3.3,0.4-5v-8h8.6c-0.5-0.7-1.1-1.5-1.8-2.1l0.9-0.5C257.8,142.7,258.5,143.6,259.2,144.6z M258.9,146.5v3.3h8.4v1
			h-8.4v3.9h6.5v8.3h-1.1v-1.6h-11v1.6h-1.1v-8.3h5.5v-8.2H258.9z M264.4,160.4v-4.7h-11v4.7H264.4z"/>
	</g>
	<g>
		<path class="st0" d="M23.9,70.1H9v13.4h13.8v3.8H9v16.9H4.8V66.3h19.1V70.1z"/>
		<path class="st0" d="M30.6,104.2V64.2h4.1v40.1H30.6z"/>
		<path class="st0" d="M64.8,77.2l-12.5,31.5c-2.2,5.5-5.3,8.3-9.2,8.3c-1,0-1.9-0.1-2.7-0.3V113c0.9,0.3,1.7,0.4,2.5,0.4
			c2.2,0,3.9-1.3,4.9-4l2.2-5.2l-10.5-27h4.5l7.5,21.1c0.1,0.3,0.3,0.9,0.6,1.9h0.1c0.1-0.3,0.2-1,0.5-1.9l7.9-21.2H64.8z"/>
		<path class="st0" d="M69,67.4c0-0.8,0.3-1.4,0.8-1.9c0.5-0.5,1.1-0.8,1.9-0.8c0.8,0,1.4,0.3,1.9,0.8c0.5,0.5,0.8,1.2,0.8,1.9
			c0,0.7-0.3,1.3-0.8,1.9c-0.5,0.5-1.2,0.8-1.9,0.8c-0.8,0-1.4-0.3-1.9-0.8C69.3,68.8,69,68.2,69,67.4z M69.6,104.2V77.2h4.1v27.1
			H69.6z"/>
		<path class="st0" d="M104.8,104.2h-4.1V88.8c0-5.8-2.1-8.8-6.4-8.8c-2.2,0-4.1,0.8-5.5,2.5c-1.4,1.7-2.2,3.8-2.2,6.3v15.4h-4.1
			V77.2h4.1v4.5h0.1c2-3.4,5-5.2,8.9-5.2c3,0,5.2,1,6.8,2.9c1.6,1.9,2.3,4.7,2.3,8.3V104.2z"/>
		<path class="st0" d="M135.9,102.1c0,9.9-4.7,14.9-14.1,14.9c-3.3,0-6.3-0.6-8.8-1.9v-4.2c3.1,1.7,6,2.5,8.8,2.5
			c6.7,0,10.1-3.6,10.1-10.8v-3h-0.1c-2.1,3.5-5.2,5.2-9.3,5.2c-3.4,0-6.1-1.2-8.2-3.6c-2-2.4-3.1-5.6-3.1-9.6c0-4.6,1.1-8.3,3.4-11
			c2.2-2.7,5.2-4.1,9-4.1c3.7,0,6.4,1.5,8.2,4.4h0.1v-3.8h4.1V102.1z M131.9,87.9c0-2.2-0.8-4.1-2.3-5.6s-3.3-2.3-5.5-2.3
			c-2.7,0-4.8,1-6.4,3c-1.6,2-2.3,4.8-2.3,8.3c0,3.1,0.8,5.5,2.3,7.4c1.5,1.8,3.5,2.8,5.8,2.8c2.4,0,4.4-0.9,6-2.6
			c1.6-1.8,2.4-4,2.4-6.7V87.9z"/>
	</g>
	<g>
		<circle class="st1" cx="258.7" cy="86" r="3.9"/>
		<circle class="st5" cx="239.9" cy="86" r="3.9"/>
		<circle class="st6" cx="221" cy="86" r="3.9"/>
	</g>
</g>
</svg>
